<svg xmlns="http://www.w3.org/2000/svg" xmlns:xlink="http://www.w3.org/1999/xlink" width="48" height="48" version="1.1" viewBox="0 0 48 48"><title>gitter-2</title><desc>Created with Sketch.</desc><defs><circle id="path-1" cx="24" cy="24" r="24"/><linearGradient id="linearGradient-3" x1="50%" x2="50%" y1="0%" y2="100%"><stop offset="0%" stop-color="#FB0766"/><stop offset="100%" stop-color="#C50948"/></linearGradient></defs><g id="Symbols" fill="none" fill-rule="evenodd" stroke="none" stroke-width="1"><g id="Footer-Copy-2" transform="translate(-1136.000000, -285.000000)"><g id="Footer" transform="translate(0.000000, 23.000000)"><g id="gitter-2" transform="translate(1136.000000, 262.000000)"><mask id="mask-2" fill="#fff"><use xlink:href="#path-1"/></mask><use id="Oval-2" fill="#D8D8D8" xlink:href="#path-1"/><polygon id="Shape" fill="url(#linearGradient-3)" points="0 0 48 0 48 48 0 48" mask="url(#mask-2)"/><path id="Shape" fill="#FFF" d="M15.733875,11.7886875 L18.0823125,11.7886875 L18.0823125,27.287625 L15.733875,27.287625 L15.733875,11.7886875 L15.733875,11.7886875 Z M30.0118125,15.546 L32.3600625,15.546 L32.3600625,27.287625 L30.0118125,27.287625 L30.0118125,15.546 L30.0118125,15.546 Z M20.5245,15.546 L22.87275,15.546 L22.87275,36.258375 L20.5245,36.258375 L20.5245,15.546 L20.5245,15.546 Z M25.2211875,15.546 L27.569625,15.546 L27.569625,36.258375 L25.2211875,36.258375 L25.2211875,15.546 L25.2211875,15.546 Z" mask="url(#mask-2)"/></g></g></g></g></svg>
