<svg xmlns="http://www.w3.org/2000/svg" xmlns:xlink="http://www.w3.org/1999/xlink" width="64" height="36" version="1.1" viewBox="0 0 64 36"><title>Page 1 Copy 2</title><desc>Created with Sketch.</desc><g id="Home-2" fill="none" fill-rule="evenodd" stroke="none" stroke-width="1"><g id="Page-1-Copy-2" fill="#FFDF00"><polygon id="Fill-3" points="14.699 1.027 14.699 10.008 6.013 10.008 6.013 1.027 0 1.027 0 24.301 6.013 24.301 6.013 14.763 14.699 14.763 14.699 24.301 20.713 24.301 20.713 1.027"/><path id="Fill-4" d="M31.6536748,31.6001114 L34.2371938,29.1780624 C35.94098,27.6246102 36.9320713,26.2214922 36.9320713,23.8217149 C36.9320713,20.1747216 33.9922049,17.8640312 30.5011136,17.8640312 C26.5701559,17.8640312 24.136971,20.4642539 24.0033408,24.3116927 L28.7750557,24.3116927 C28.7305122,24.0667038 28.7082405,23.8217149 28.7082405,23.5989978 C28.7082405,22.4631403 29.3485523,21.5555679 30.5178174,21.5555679 C31.6648107,21.5555679 32.4164811,22.6691537 32.4164811,23.7326281 C32.4164811,25.2638085 31.486637,26.7782851 30.5178174,27.8417595 L23.7138085,35.2860802 L37.1046771,35.2860802 L37.1046771,31.5945434 L31.6536748,31.5945434"/><path id="Fill-6" d="M50.5400891,6.11570156 C54.1314031,6.11570156 57.0768374,9.05 57.0768374,12.2571269 C57.0768374,16.2716036 54.1314031,19.2003341 50.5400891,19.2003341 C46.9487751,19.2003341 44.0033408,16.2660356 44.0033408,12.2571269 C44.0033408,9.05 46.9487751,6.11570156 50.5400891,6.11570156 M50.5400891,0.252672606 C43.8808463,0.252672606 37.7449889,5.19142539 37.7449889,12.2292873 C37.7449889,19.7626949 43.1180401,25.068931 50.5400891,25.068931 C57.9621381,25.068931 63.3351893,19.7571269 63.3351893,12.2292873 C63.3351893,5.19142539 57.1993318,0.252672606 50.5400891,0.252672606"/></g></g></svg>
